<svg xmlns="http://www.w3.org/2000/svg" xmlns:xlink="http://www.w3.org/1999/xlink" width="637.161" height="665.771" viewBox="0 0 637.161 665.771">
  <defs>
    <linearGradient id="linear-gradient" x1="0.029" y1="0.467" x2="0.997" y2="0.467" gradientUnits="objectBoundingBox">
      <stop offset="0" stop-color="#9cff88"/>
      <stop offset="0.24" stop-color="#7df39d"/>
      <stop offset="1" stop-color="#1fd0e0"/>
    </linearGradient>
  </defs>
  <g id="Grupo_1783" data-name="Grupo 1783" transform="translate(73.245 0) rotate(7)">
    <path id="Caminho_642" data-name="Caminho 642" d="M182.49,601.011c-47.2,0-92.87-27.536-119.59-73.325A182.352,182.352,0,0,1,42.169,473.73l-.106.012-.346-2.182c-.946-4.662-1.635-8.655-2.149-12.469a27.254,27.254,0,0,1-.2-5.087L2.845,183.754a24.331,24.331,0,0,1-1.1-4.679,184.17,184.17,0,0,1,4.3-72.328C23.729,40.2,79.419-3.606,141.48.234c.878.056,1.753.151,2.619.29L392.7,40.341a26.985,26.985,0,0,1,4.792,1.236C484.242,61.306,551.812,143.3,565.631,245.638c14.434,106.852-34.222,208.227-118.316,246.522A27.928,27.928,0,0,1,443.7,493.5L224.19,593.479c-.8.364-1.62.689-2.45.975a120.757,120.757,0,0,1-39.25,6.557ZM44.782,471.273l.109.452a179.663,179.663,0,0,0,20.666,54.412c29.132,49.925,81.208,77.7,132.67,70.738a118.61,118.61,0,0,0,22.513-5.333c.736-.254,1.46-.541,2.173-.866l219.714-100.05a28.134,28.134,0,0,0,3.415-1.268c82.867-37.737,130.793-137.79,116.542-243.309C548.926,144.941,482.271,63.966,396.72,44.56l-.177-.053a24.114,24.114,0,0,0-4.328-1.126L143.618,3.562c-.771-.121-1.549-.207-2.326-.257C80.743-.44,26.325,42.428,9.02,107.538A181.16,181.16,0,0,0,4.8,178.66a24.319,24.319,0,0,0,1.035,4.4l36.6,270.815a27.357,27.357,0,0,0,.183,4.8c.506,3.745,1.183,7.674,2.131,12.368ZM447.744,127.284Z" transform="translate(0 0)" fill="url(#linear-gradient)"/>
  </g>
</svg>
