<svg id="Grupo_1796" data-name="Grupo 1796" xmlns="http://www.w3.org/2000/svg" width="50.7" height="50.7" viewBox="0 0 50.7 50.7">
  <g id="Grupo_1609" data-name="Grupo 1609">
    <g id="Grupo_1608" data-name="Grupo 1608">
      <path id="Caminho_1173" data-name="Caminho 1173" d="M44.759,3.961H42.382V0H38.421V3.961H12.279V0H8.318V3.961H5.941A5.948,5.948,0,0,0,0,9.9V44.759A5.948,5.948,0,0,0,5.941,50.7H44.759A5.948,5.948,0,0,0,50.7,44.759V9.9A5.948,5.948,0,0,0,44.759,3.961Zm1.98,40.8a1.983,1.983,0,0,1-1.98,1.98H5.941a1.983,1.983,0,0,1-1.98-1.98V18.616H46.739Zm0-30.1H3.961V9.9a1.983,1.983,0,0,1,1.98-1.98H8.318v3.961h3.961V7.922H38.421v3.961h3.961V7.922h2.377a1.983,1.983,0,0,1,1.98,1.98Z" fill="#666"/>
    </g>
  </g>
  <g id="Grupo_1611" data-name="Grupo 1611" transform="translate(7.949 22.436)">
    <g id="Grupo_1610" data-name="Grupo 1610" transform="translate(0 0)">
      <rect id="Retângulo_659" data-name="Retângulo 659" width="3.533" height="4.416" fill="#666"/>
    </g>
  </g>
  <g id="Grupo_1613" data-name="Grupo 1613" transform="translate(15.016 22.436)">
    <g id="Grupo_1612" data-name="Grupo 1612" transform="translate(0 0)">
      <rect id="Retângulo_660" data-name="Retângulo 660" width="4.416" height="4.416" fill="#666"/>
    </g>
  </g>
  <g id="Grupo_1615" data-name="Grupo 1615" transform="translate(22.965 22.436)">
    <g id="Grupo_1614" data-name="Grupo 1614" transform="translate(0 0)">
      <rect id="Retângulo_661" data-name="Retângulo 661" width="4.416" height="4.416" fill="#666"/>
    </g>
  </g>
  <g id="Grupo_1617" data-name="Grupo 1617" transform="translate(30.915 22.436)">
    <g id="Grupo_1616" data-name="Grupo 1616" transform="translate(0 0)">
      <rect id="Retângulo_662" data-name="Retângulo 662" width="4.416" height="4.416" fill="#666"/>
    </g>
  </g>
  <g id="Grupo_1619" data-name="Grupo 1619" transform="translate(38.864 22.436)">
    <g id="Grupo_1618" data-name="Grupo 1618" transform="translate(0 0)">
      <rect id="Retângulo_663" data-name="Retângulo 663" width="4.416" height="4.416" fill="#666"/>
    </g>
  </g>
  <g id="Grupo_1621" data-name="Grupo 1621" transform="translate(7.949 30.385)">
    <g id="Grupo_1620" data-name="Grupo 1620" transform="translate(0 0)">
      <rect id="Retângulo_664" data-name="Retângulo 664" width="3.533" height="4.416" fill="#666"/>
    </g>
  </g>
  <g id="Grupo_1623" data-name="Grupo 1623" transform="translate(15.016 30.385)">
    <g id="Grupo_1622" data-name="Grupo 1622" transform="translate(0 0)">
      <rect id="Retângulo_665" data-name="Retângulo 665" width="4.416" height="4.416" fill="#666"/>
    </g>
  </g>
  <g id="Grupo_1625" data-name="Grupo 1625" transform="translate(22.965 30.385)">
    <g id="Grupo_1624" data-name="Grupo 1624" transform="translate(0 0)">
      <rect id="Retângulo_666" data-name="Retângulo 666" width="4.416" height="4.416" fill="#666"/>
    </g>
  </g>
  <g id="Grupo_1627" data-name="Grupo 1627" transform="translate(30.915 30.385)">
    <g id="Grupo_1626" data-name="Grupo 1626" transform="translate(0 0)">
      <rect id="Retângulo_667" data-name="Retângulo 667" width="4.416" height="4.416" fill="#666"/>
    </g>
  </g>
  <g id="Grupo_1629" data-name="Grupo 1629" transform="translate(7.949 38.335)">
    <g id="Grupo_1628" data-name="Grupo 1628" transform="translate(0 0)">
      <rect id="Retângulo_668" data-name="Retângulo 668" width="3.533" height="4.416" fill="#666"/>
    </g>
  </g>
  <g id="Grupo_1631" data-name="Grupo 1631" transform="translate(15.016 38.335)">
    <g id="Grupo_1630" data-name="Grupo 1630" transform="translate(0 0)">
      <rect id="Retângulo_669" data-name="Retângulo 669" width="4.416" height="4.416" fill="#666"/>
    </g>
  </g>
  <g id="Grupo_1633" data-name="Grupo 1633" transform="translate(22.965 38.335)">
    <g id="Grupo_1632" data-name="Grupo 1632" transform="translate(0 0)">
      <rect id="Retângulo_670" data-name="Retângulo 670" width="4.416" height="4.416" fill="#666"/>
    </g>
  </g>
  <g id="Grupo_1635" data-name="Grupo 1635" transform="translate(30.915 38.335)">
    <g id="Grupo_1634" data-name="Grupo 1634" transform="translate(0 0)">
      <rect id="Retângulo_671" data-name="Retângulo 671" width="4.416" height="4.416" fill="#666"/>
    </g>
  </g>
  <g id="Grupo_1637" data-name="Grupo 1637" transform="translate(38.864 30.385)">
    <g id="Grupo_1636" data-name="Grupo 1636" transform="translate(0 0)">
      <rect id="Retângulo_672" data-name="Retângulo 672" width="4.416" height="4.416" fill="#666"/>
    </g>
  </g>
</svg>
