<svg id="diagnosis_icon" data-name="diagnosis icon" xmlns="http://www.w3.org/2000/svg" width="71.725" height="79.695" viewBox="0 0 71.725 79.695">
  <path id="Caminho_25" data-name="Caminho 25" d="M7.969,79.695H63.756a7.977,7.977,0,0,0,7.969-7.969V11.954a7.977,7.977,0,0,0-7.969-7.969H55.786A3.986,3.986,0,0,0,51.8,0H19.924a3.986,3.986,0,0,0-3.985,3.985H7.969A7.977,7.977,0,0,0,0,11.954V71.725A7.977,7.977,0,0,0,7.969,79.695Zm0-67.741h7.969v7.969H55.786V11.954h7.969V71.725H7.969Z" transform="translate(0 0)" fill="#fff"/>
  <path id="Caminho_26" data-name="Caminho 26" d="M17.572,22.907l-7.145-7.145L4.793,21.4,17.572,34.176,38.321,13.427,32.686,7.793Z" transform="translate(14.306 23.26)" fill="#fff"/>
</svg>
