<svg xmlns="http://www.w3.org/2000/svg" width="43.438" height="48.781" viewBox="0 0 43.438 48.781">
  <g id="Grupo_1926" data-name="Grupo 1926" transform="translate(0 0)" opacity="0.55">
    <g id="Grupo_1828" data-name="Grupo 1828" transform="translate(0 0)">
      <path id="Caminho_1211" data-name="Caminho 1211" d="M67.926,3.553a12.165,12.165,0,0,0-17.185,0L32.647,21.647a1.429,1.429,0,1,0,2.021,2.021L52.762,5.575a9.518,9.518,0,0,1,13.142,0,9.3,9.3,0,0,1,0,13.141L40.639,44.266a5.854,5.854,0,0,1-8.087,0,5.724,5.724,0,0,1,0-8.086L56.806,11.639a2.2,2.2,0,0,1,3.032,0,2.148,2.148,0,0,1,0,3.034L36.6,38.2a1.593,1.593,0,0,0,0,2.021,1.429,1.429,0,0,0,2.021,0L61.86,16.694a5.008,5.008,0,0,0,0-7.076,5.125,5.125,0,0,0-7.075,0L30.53,34.158a8.633,8.633,0,0,0,0,12.129,8.622,8.622,0,0,0,12.13,0l25.266-25.55A12.163,12.163,0,0,0,67.926,3.553Z" transform="translate(-28.041 0)"/>
    </g>
  </g>
</svg>
