<svg xmlns="http://www.w3.org/2000/svg" width="35.005" height="35.005" viewBox="0 0 35.005 35.005">
  <g id="Grupo_1565" data-name="Grupo 1565" transform="translate(567 -16)">
    <g id="Grupo_1562" data-name="Grupo 1562" transform="translate(-567 16)">
      <g id="Grupo_1561" data-name="Grupo 1561" transform="translate(0 0)">
        <path id="Caminho_1162" data-name="Caminho 1162" d="M-534.278,29.7h-2.849a12.877,12.877,0,0,0-.931-2.251l2.013-2.013a2.269,2.269,0,0,0,.668-1.616,2.269,2.269,0,0,0-.668-1.615L-538.2,20.05a2.34,2.34,0,0,0-3.23,0l-2.013,2.013a12.913,12.913,0,0,0-2.251-.931V18.283A2.286,2.286,0,0,0-547.976,16h-3.044a2.286,2.286,0,0,0-2.283,2.283v2.849a12.938,12.938,0,0,0-2.251.931l-2.014-2.013a2.286,2.286,0,0,0-3.23,0l-2.154,2.154a2.288,2.288,0,0,0,0,3.23l2.013,2.014a12.914,12.914,0,0,0-.931,2.251h-2.848A2.286,2.286,0,0,0-567,31.981v3.044a2.286,2.286,0,0,0,2.283,2.282h2.849a12.933,12.933,0,0,0,.931,2.251l-2.013,2.014a2.286,2.286,0,0,0,0,3.23l2.154,2.154a2.288,2.288,0,0,0,3.23,0l2.013-2.013a12.915,12.915,0,0,0,2.251.931v2.848A2.286,2.286,0,0,0-551.019,51h3.044a2.286,2.286,0,0,0,2.283-2.283V45.873a12.915,12.915,0,0,0,2.251-.931l2.013,2.014a2.341,2.341,0,0,0,3.23,0l2.154-2.154a2.269,2.269,0,0,0,.668-1.615,2.268,2.268,0,0,0-.668-1.615l-2.013-2.014a12.914,12.914,0,0,0,.931-2.251h2.848A2.286,2.286,0,0,0-532,35.024V31.98A2.286,2.286,0,0,0-534.278,29.7Zm.761,5.327a.762.762,0,0,1-.761.761H-537.7a.761.761,0,0,0-.737.571A11.436,11.436,0,0,1-539.66,39.3a.762.762,0,0,0,.117.925l2.42,2.421a.756.756,0,0,1,.222.539.756.756,0,0,1-.222.539l-2.154,2.154a.784.784,0,0,1-1.077,0l-2.42-2.42a.762.762,0,0,0-.925-.117,11.4,11.4,0,0,1-2.946,1.22.76.76,0,0,0-.57.736v3.424a.762.762,0,0,1-.761.761h-3.044a.762.762,0,0,1-.761-.761V45.3a.761.761,0,0,0-.571-.737,11.411,11.411,0,0,1-2.946-1.22.753.753,0,0,0-.387-.106.76.76,0,0,0-.539.223l-2.42,2.42a.763.763,0,0,1-1.078,0l-2.154-2.154a.762.762,0,0,1,0-1.078l2.42-2.42a.76.76,0,0,0,.117-.925,11.425,11.425,0,0,1-1.22-2.946.76.76,0,0,0-.736-.571h-3.424a.762.762,0,0,1-.761-.761V31.98a.762.762,0,0,1,.761-.761h3.424a.761.761,0,0,0,.737-.571,11.413,11.413,0,0,1,1.22-2.947.76.76,0,0,0-.117-.925l-2.42-2.42a.763.763,0,0,1,0-1.078l2.154-2.154a.763.763,0,0,1,1.078,0l2.42,2.42a.759.759,0,0,0,.925.117,11.426,11.426,0,0,1,2.946-1.22.761.761,0,0,0,.571-.737V18.283a.762.762,0,0,1,.761-.761h3.044a.762.762,0,0,1,.761.761v3.424a.761.761,0,0,0,.571.737,11.4,11.4,0,0,1,2.946,1.22.76.76,0,0,0,.925-.117l2.42-2.42a.781.781,0,0,1,1.078,0l2.154,2.154a.757.757,0,0,1,.222.539.757.757,0,0,1-.222.539l-2.42,2.42a.761.761,0,0,0-.117.925,11.427,11.427,0,0,1,1.221,2.947.76.76,0,0,0,.736.571h3.424a.762.762,0,0,1,.761.761Z" transform="translate(567 -16)" fill="#707070"/>
      </g>
    </g>
    <g id="Grupo_1564" data-name="Grupo 1564" transform="translate(-556.346 26.654)">
      <g id="Grupo_1563" data-name="Grupo 1563" transform="translate(0 0)">
        <path id="Caminho_1163" data-name="Caminho 1163" d="M-448.151,128A6.857,6.857,0,0,0-455,134.849a6.857,6.857,0,0,0,6.849,6.849,6.857,6.857,0,0,0,6.849-6.849A6.857,6.857,0,0,0-448.151,128Zm0,12.176a5.333,5.333,0,0,1-5.327-5.327,5.333,5.333,0,0,1,5.327-5.327,5.333,5.333,0,0,1,5.327,5.327A5.333,5.333,0,0,1-448.151,140.176Z" transform="translate(455 -128)" fill="#707070"/>
      </g>
    </g>
  </g>
</svg>
