<svg id="Grupo_726" data-name="Grupo 726" xmlns="http://www.w3.org/2000/svg" width="36.247" height="30.382" viewBox="0 0 36.247 30.382">
  <path id="Caminho_650" data-name="Caminho 650" d="M35.6,56.374a2.66,2.66,0,0,0-1.852-1.01L8.225,53.11a2.609,2.609,0,0,0-1.985.671,2.916,2.916,0,0,0-.954,1.949l-.514,5.1H2.722A2.807,2.807,0,0,0,0,63.7V80.6a2.807,2.807,0,0,0,2.722,2.879H28.337A2.807,2.807,0,0,0,31.06,80.6V77.861l.909.08q.115.01.229.01a2.792,2.792,0,0,0,2.711-2.64l1.33-16.84a2.971,2.971,0,0,0-.635-2.1ZM2.722,62.323H28.337A1.347,1.347,0,0,1,29.644,63.7v1.54H1.416V63.7a1.347,1.347,0,0,1,1.307-1.382ZM1.416,66.742H29.644v3.106H1.416ZM28.337,81.984H2.722A1.347,1.347,0,0,1,1.416,80.6V71.345H29.644V80.6a1.347,1.347,0,0,1-1.307,1.382Zm6.49-23.636L33.5,75.187a1.332,1.332,0,0,1-1.411,1.262l-1.027-.091V63.7a2.807,2.807,0,0,0-2.723-2.879H6.2l.5-4.944v-.017A1.332,1.332,0,0,1,8.108,54.6l25.526,2.254a1.276,1.276,0,0,1,.889.485A1.426,1.426,0,0,1,34.827,58.348Z" transform="translate(0 -53.1)" fill="#707070"/>
  <path id="Caminho_651" data-name="Caminho 651" d="M278.152,326.532h-6.814a.729.729,0,0,0-.708.749v4.7a.729.729,0,0,0,.708.749h6.814a.729.729,0,0,0,.708-.749v-4.7A.729.729,0,0,0,278.152,326.532Zm-.708,4.7h-5.4v-3.2h5.4Z" transform="translate(-251.472 -306.06)" fill="#707070"/>
</svg>
