<svg id="doctor" xmlns="http://www.w3.org/2000/svg" width="70.682" height="79.695" viewBox="0 0 70.682 79.695">
  <g id="Grupo_660" data-name="Grupo 660" transform="translate(0)">
    <path id="Caminho_646" data-name="Caminho 646" d="M99.584,75.614l-3.526-20.64a5.875,5.875,0,0,0-4.118-4.662l-9.509-2.869a10.606,10.606,0,0,0-7.36-9.211c.3-.334.58-.667.836-.993a18.458,18.458,0,0,0,3.78-8.207h.734a3.464,3.464,0,0,0,3.46-3.46V23.8a3.484,3.484,0,0,0-1.794-3.026V16.507a1.167,1.167,0,1,0-2.334,0V21.3a7.194,7.194,0,0,0-1.552.449,1.173,1.173,0,0,0-.164.073c-.125.057-.251.117-.376.185V12.6a4.717,4.717,0,0,0-4.712-4.712H69.729a4.842,4.842,0,0,0-3.057,1.09l-.316.258a3.26,3.26,0,0,1-4.127,0l-.316-.258a4.843,4.843,0,0,0-3.057-1.09H55.635A4.717,4.717,0,0,0,50.923,12.6V22c-.125-.068-.25-.128-.376-.185a1.17,1.17,0,0,0-.164-.073,7.2,7.2,0,0,0-1.552-.449V9.187a6.861,6.861,0,0,1,6.853-6.853H72.9a6.861,6.861,0,0,1,6.853,6.853v1.835a1.167,1.167,0,1,0,2.334,0V9.187A9.2,9.2,0,0,0,72.9,0H55.685A9.2,9.2,0,0,0,46.5,9.187V20.773A3.484,3.484,0,0,0,44.7,23.8v1.774a3.464,3.464,0,0,0,3.46,3.46H48.9a18.456,18.456,0,0,0,3.78,8.207c.256.325.535.658.835.992a10.645,10.645,0,0,0-7.359,9.211l-9.51,2.869a5.875,5.875,0,0,0-4.118,4.662L31.1,63.356a1.167,1.167,0,0,0,2.3.393l1.432-8.382a3.554,3.554,0,0,1,2.491-2.82l8.8-2.654V52.2a5.839,5.839,0,0,0-4.438,3.675,5.919,5.919,0,0,0-.346,1.585l-.85,10.911a2.966,2.966,0,0,0,2.957,3.2h1.455a1.167,1.167,0,1,0,0-2.334H43.438a.632.632,0,0,1-.63-.681l.85-10.911a3.584,3.584,0,0,1,.21-.96,3.529,3.529,0,0,1,3.3-2.249h.219a3.5,3.5,0,0,1,3.259,2.09,3.579,3.579,0,0,1,.273,1.121l.85,10.911a.632.632,0,0,1-.63.681H49.686a1.167,1.167,0,1,0,0,2.334h1.455a2.967,2.967,0,0,0,2.957-3.2l-.85-10.911a5.91,5.91,0,0,0-.451-1.85,5.777,5.777,0,0,0-4.349-3.417V49.189l4.012-1.211c.365.769,1.088,2.43,2.521,6.011,1.444,3.613,3.239,8.245,4.96,12.747a1.186,1.186,0,0,0,.042.111c1.149,3.006,2.263,5.95,3.216,8.49a1.167,1.167,0,0,0,2.185,0c.953-2.54,2.067-5.484,3.216-8.49a1.154,1.154,0,0,0,.042-.111c1.72-4.5,3.514-9.128,4.957-12.741,1.435-3.586,2.159-5.248,2.524-6.018l4.012,1.211v6.893a6.038,6.038,0,1,0,2.334,0V49.893l8.8,2.654a3.554,3.554,0,0,1,2.491,2.82l3.526,20.64a1.159,1.159,0,0,1-1.142,1.354h-63.7A1.159,1.159,0,0,1,31.3,76.007L32.466,69.2a1.167,1.167,0,0,0-2.3-.393L29,75.614a3.492,3.492,0,0,0,3.443,4.081h63.7a3.493,3.493,0,0,0,3.443-4.081ZM79.768,23.673a5.009,5.009,0,0,1,1.127-.152,1.193,1.193,0,0,0,.57-.135,1.105,1.105,0,0,1,.083.413v1.774A1.128,1.128,0,0,1,80.421,26.7h-.653V23.673ZM48.818,26.7h-.653a1.128,1.128,0,0,1-1.126-1.126V23.8a1.107,1.107,0,0,1,.083-.413,1.19,1.19,0,0,0,.57.135,5.2,5.2,0,0,1,1.127.153Zm2.334,1.309V24.942a1.638,1.638,0,0,0,2.106-1.57V12.6a2.381,2.381,0,0,1,2.378-2.378h3.221a2.5,2.5,0,0,1,1.579.563l.316.258a5.595,5.595,0,0,0,7.082,0l.316-.258a2.5,2.5,0,0,1,1.579-.563H72.95A2.381,2.381,0,0,1,75.328,12.6V23.372a1.638,1.638,0,0,0,2.106,1.571v3.065c0,1.7-1.178,5.013-3.361,7.789a15.387,15.387,0,0,1-2.8,2.771,1.172,1.172,0,0,0-.1.079,11.376,11.376,0,0,1-13.757,0,1.185,1.185,0,0,0-.1-.078,15.4,15.4,0,0,1-2.8-2.772C52.33,33.021,51.152,29.712,51.152,28.008ZM71.939,46.863l-7.646,5.715-7.646-5.715a5.535,5.535,0,0,0,1.183-3.3V41.677a13.705,13.705,0,0,0,12.925,0v1.881A5.535,5.535,0,0,0,71.939,46.863ZM54.7,45.56a3.191,3.191,0,0,0-1.968-.1l-.084.022L48.616,46.7a8.291,8.291,0,0,1,6.88-6.539v3.4A3.086,3.086,0,0,1,54.7,45.56Zm3.167,9.368-.006-.016-.175-.443-.031-.079-.168-.424-.012-.029q-.259-.652-.5-1.251l-.035-.087L56.8,52.26l-.049-.122-.13-.32-.038-.093-.227-.558-.06-.147-.085-.209-.091-.222-.034-.083-.026-.064q-.2-.491-.384-.926l0-.007-.189-.449-.093-.22,6.576,4.915-2.748,1.167-.015.006-1.147.487Zm2.785,7.146q-.346-.9-.7-1.8-.546-1.41-1.044-2.685l.436-.185,1.779,2.068Zm3.664,9.485a1.162,1.162,0,0,0-.119-.2c-.527-1.394-1.2-3.158-1.937-5.1l1.09-5.965h1.889l1.09,5.965C65.551,68.3,64.854,70.137,64.316,71.56Zm1.36-13.593H62.911L61.6,56.445,64.293,55.3l2.691,1.143Zm2.954,2.307q-.349.9-.7,1.8l-.475-2.6L69.238,57.4l.436.185Q69.175,58.865,68.63,60.274ZM73.1,49.059l-.179.425-.024.057-.186.447-.013.031-.169.409-.032.077-.039.1-.078.189-.1.236-.032.078L72,51.72l-.04.1-.128.317-.051.126-.135.335-.038.1q-.237.591-.493,1.234l-.017.042-.167.421-.032.08-.176.445,0,.008-.194.492-1.148-.488-.012-.005-2.749-1.168,6.576-4.915Zm2.838-3.575h0a3.189,3.189,0,0,0-2.048.078,3.085,3.085,0,0,1-.8-2v-3.4A8.226,8.226,0,0,1,79.975,46.7ZM85,62.009a3.7,3.7,0,1,1-3.7-3.7A3.709,3.709,0,0,1,85,62.009Z" transform="translate(-28.952)" fill="#fff"/>
  </g>
</svg>
