<svg xmlns="http://www.w3.org/2000/svg" width="71.727" height="71.727" viewBox="0 0 71.727 71.727">
  <g id="Grupo_1904" data-name="Grupo 1904" transform="translate(-266.345 -80.114)">
    <path id="Caminho_1212" data-name="Caminho 1212" d="M302.208,151.841h0a35.863,35.863,0,0,1-35.863-35.863h0a35.863,35.863,0,0,1,35.863-35.864h0a35.864,35.864,0,0,1,35.864,35.864h0A35.864,35.864,0,0,1,302.208,151.841Z" fill="#3e5c9a"/>
    <path id="Caminho_1213" data-name="Caminho 1213" d="M296.744,137.655h8.73V115.794h6.091l.649-7.32h-6.74v-4.169c0-1.726.346-2.408,2.015-2.408h4.725V94.3h-6.045c-6.5,0-9.425,2.862-9.425,8.338v5.836H292.2v7.411h4.541Z" fill="#fff"/>
  </g>
</svg>
