<svg xmlns="http://www.w3.org/2000/svg" width="70.28" height="71.727" viewBox="0 0 70.28 71.727">
  <g id="Grupo_1913" data-name="Grupo 1913" transform="translate(199.998 -21.898)">
    <path id="Caminho_1219" data-name="Caminho 1219" d="M-179.934,41.68a31.082,31.082,0,0,1,5.954-8.566,34.643,34.643,0,0,1,19.989-10.687c11-1.758,20.852.837,29.363,8.165.538.463.67.734.086,1.306-3,2.941-5.96,5.931-8.934,8.9-.305.3-.511.677-1.053.181-7.493-6.865-19.723-6.787-27.685.617a22.872,22.872,0,0,0-5.95,9.081c-.186-.122-.381-.23-.556-.365Q-174.329,46-179.934,41.68Z" transform="translate(-16.199)" fill="#d7282a" fill-rule="evenodd"/>
    <path id="Caminho_1220" data-name="Caminho 1220" d="M-168.376,244.092a24.022,24.022,0,0,0,4.392,7.5,21.106,21.106,0,0,0,18.787,7.2,22.736,22.736,0,0,0,9.615-3.352c.284.254.555.526.855.76q5.2,4.061,10.411,8.112a29.808,29.808,0,0,1-13.43,7.34c-11.986,3.03-23.035,1.115-32.846-6.628a33.3,33.3,0,0,1-9.5-11.835Z" transform="translate(-16.075 -179.39)" fill="#45ac43" fill-rule="evenodd"/>
    <path id="Caminho_1221" data-name="Caminho 1221" d="M9.541,206.819Q4.335,202.764-.87,198.706c-.3-.234-.57-.506-.855-.76a18.215,18.215,0,0,0,5.6-6.61A22.986,22.986,0,0,0,5.091,188c.235-.784.162-1.089-.808-1.081-5.777.049-11.554.024-17.331.024-1.224,0-1.225,0-1.225-1.266,0-3.916.019-7.832-.017-11.747-.007-.755.126-1.045.976-1.043q15.983.047,31.967.01c.575,0,.937.042,1.037.742,1.326,9.32.263,18.224-4.615,26.449A26.4,26.4,0,0,1,9.541,206.819Z" transform="translate(-149.932 -121.902)" fill="#5d7fbe" fill-rule="evenodd"/>
    <path id="Caminho_1222" data-name="Caminho 1222" d="M-184.451,147.612l-11.711,9.092a32.439,32.439,0,0,1-3.519-11.318,35.438,35.438,0,0,1,3-19.787c.16-.346.363-.673.546-1.009q5.606,4.318,11.214,8.635c.175.135.37.243.556.365A22.656,22.656,0,0,0-184.451,147.612Z" transform="translate(0 -82.91)" fill="#f4c300" fill-rule="evenodd"/>
  </g>
</svg>
