<svg xmlns="http://www.w3.org/2000/svg" width="54.381" height="47.056" viewBox="0 0 54.381 47.056">
  <g id="Grupo_1557" data-name="Grupo 1557" transform="translate(0 -26.184)">
    <g id="Grupo_731" data-name="Grupo 731" transform="translate(16.001 41.854)">
      <g id="Grupo_730" data-name="Grupo 730" transform="translate(0 0)">
        <path id="Caminho_668" data-name="Caminho 668" d="M135.112,144.46h-4.565v-4.565a1.667,1.667,0,0,0-1.656-1.678H122.3a1.667,1.667,0,0,0-1.667,1.667v4.565h-4.554A1.667,1.667,0,0,0,114.4,146.1V152.7a1.667,1.667,0,0,0,1.667,1.667h4.565v4.554a1.667,1.667,0,0,0,1.656,1.678h6.579a1.667,1.667,0,0,0,1.667-1.667h0v-4.565H135.1a1.667,1.667,0,0,0,1.678-1.656v-6.579A1.667,1.667,0,0,0,135.112,144.46Zm-.571,7.665h-5.114a1.119,1.119,0,0,0-1.119,1.119v5.114H122.87v-5.114a1.119,1.119,0,0,0-1.119-1.119h-5.114V146.7h5.114a1.119,1.119,0,0,0,1.119-1.119v-5.125H128.3v5.114a1.119,1.119,0,0,0,1.119,1.119h5.125Z" transform="translate(-114.4 -138.216)" fill="#666"/>
      </g>
    </g>
    <g id="Grupo_733" data-name="Grupo 733" transform="translate(0 26.184)">
      <g id="Grupo_732" data-name="Grupo 732" transform="translate(0 0)">
        <path id="Caminho_669" data-name="Caminho 669" d="M46.66,33.484H37.44V29.545a3.256,3.256,0,0,0-3.149-3.36q-.137,0-.275,0H20.365a3.256,3.256,0,0,0-3.421,3.082q-.007.137,0,.275v3.916H7.721C4.163,33.462,0,35.487,0,41.182V65.52c0,5.7,4.163,7.721,7.721,7.721H46.66c3.558,0,7.721-2.025,7.721-7.721V41.2C54.381,35.509,50.23,33.484,46.66,33.484ZM19.179,29.545a1.049,1.049,0,0,1,1.2-1.2h13.64c1.2,0,1.2.862,1.2,1.2v3.916H19.179ZM52.143,65.52c0,4.946-3.827,5.483-5.483,5.483H7.721c-1.645,0-5.483-.537-5.483-5.483V41.2c0-4.946,3.827-5.483,5.483-5.483H46.66c1.645,0,5.483.537,5.483,5.483V65.52Z" transform="translate(0 -26.184)" fill="#666"/>
      </g>
    </g>
  </g>
</svg>
