<svg xmlns="http://www.w3.org/2000/svg" width="59.098" height="55.923" viewBox="0 0 59.098 55.923">
  <g id="Grupo_1558" data-name="Grupo 1558" transform="translate(0 -14)">
    <path id="Caminho_1156" data-name="Caminho 1156" d="M123.7,305.729a1.154,1.154,0,1,0-1.577-.422A1.155,1.155,0,0,0,123.7,305.729Z" transform="translate(-107.886 -256.15)" fill="#666"/>
    <path id="Caminho_1157" data-name="Caminho 1157" d="M11.079,77.32l5.813,10.069a4.617,4.617,0,1,0,8-4.617l-3.463-6,3-1.731a1.155,1.155,0,0,0,.423-1.577l-1.5-2.6,22.109-4.337a3.462,3.462,0,0,0,2.807-5.188L44.426,54.7l2.451-3.713a1.155,1.155,0,0,0,.036-1.213l-2.309-4a1.156,1.156,0,0,0-1.069-.575l-4.441.267-4.259-7.377a3.433,3.433,0,0,0-2.956-1.731h-.044a3.432,3.432,0,0,0-2.915,1.6L13.843,57.16l-9.8,5.659a8.08,8.08,0,0,0,7.039,14.5ZM22.89,83.927a2.309,2.309,0,0,1-4,2.308l-5.771-10,4-2.309Zm-2.618-9.153-1.154-2,2-1.154,1.154,2Zm22.691-27.23,1.6,2.763-1.423,2.154L40.386,47.7Zm-12.11-8.326a1.154,1.154,0,0,1,1.985.023L46.263,62.495a1.154,1.154,0,0,1-.971,1.731,4.235,4.235,0,0,0-.633.107l-14.2-24.6C30.755,39.351,30.793,39.314,30.852,39.217Zm-1.932,2.474L42.264,64.8l-20.137,3.95L16,58.147ZM3.082,72.7a5.767,5.767,0,0,1,2.112-7.884l9-5.194,5.771,10-9,5.195A5.778,5.778,0,0,1,3.082,72.7Z" transform="translate(0 -19.774)" fill="#666"/>
    <path id="Caminho_1158" data-name="Caminho 1158" d="M49.989,324.15a1.154,1.154,0,0,0-1.577-.422l-2,1.154a1.156,1.156,0,0,1-1.577-.422,1.154,1.154,0,0,0-2,1.154,3.467,3.467,0,0,0,4.73,1.267l2-1.154A1.154,1.154,0,0,0,49.989,324.15Z" transform="translate(-37.755 -273.839)" fill="#666"/>
    <path id="Caminho_1159" data-name="Caminho 1159" d="M443.3,56.627l-6.432,3.579a1.154,1.154,0,1,0,1.123,2.017l6.431-3.579a1.154,1.154,0,0,0-1.122-2.017Z" transform="translate(-385.917 -37.577)" fill="#666"/>
    <path id="Caminho_1160" data-name="Caminho 1160" d="M445.976,151.856l-4.46-1.195a1.154,1.154,0,1,0-.6,2.23l4.46,1.195a1.154,1.154,0,1,0,.6-2.23Z" transform="translate(-389.268 -120.851)" fill="#666"/>
    <path id="Caminho_1161" data-name="Caminho 1161" d="M384.728,14.856l-1.2,4.46a1.154,1.154,0,1,0,2.23.6l1.2-4.46a1.154,1.154,0,1,0-2.23-.6Z" transform="translate(-339.227)" fill="#666"/>
  </g>
</svg>
