<svg id="message_icon" data-name="message icon" xmlns="http://www.w3.org/2000/svg" width="42.493" height="44.618" viewBox="0 0 42.493 44.618">
  <path id="Caminho_80" data-name="Caminho 80" d="M4.249,30.846H8.5v9.068l10.838-9.068H29.745A4.354,4.354,0,0,0,33.995,26.4V8.627a4.354,4.354,0,0,0-4.249-4.444H4.249A4.354,4.354,0,0,0,0,8.627V26.4A4.354,4.354,0,0,0,4.249,30.846Z" transform="translate(0 4.704)" fill="#666"/>
  <path id="Caminho_81" data-name="Caminho 81" d="M33.745,0H8.249A4.354,4.354,0,0,0,4,4.444H29.5a4.354,4.354,0,0,1,4.249,4.444V26.663a4.354,4.354,0,0,0,4.249-4.444V4.444A4.354,4.354,0,0,0,33.745,0Z" transform="translate(4.499)" fill="#666"/>
</svg>
