<svg xmlns="http://www.w3.org/2000/svg" width="28.46" height="35.54" viewBox="0 0 28.46 35.54">
  <g id="Grupo_1774" data-name="Grupo 1774" transform="translate(-51)">
    <g id="Grupo_1771" data-name="Grupo 1771" transform="translate(51 0)">
      <g id="Grupo_1770" data-name="Grupo 1770" transform="translate(0)">
        <path id="Caminho_1204" data-name="Caminho 1204" d="M79.155,10.717,68.743.305A1.041,1.041,0,0,0,68.007,0H52.041A1.041,1.041,0,0,0,51,1.041V34.5a1.041,1.041,0,0,0,1.041,1.041H78.419A1.041,1.041,0,0,0,79.46,34.5V11.453A1.041,1.041,0,0,0,79.155,10.717ZM77.378,33.458h-24.3V2.082H67.575l9.8,9.8Z" transform="translate(-51 0)" fill="#707070"/>
      </g>
    </g>
    <g id="Grupo_1773" data-name="Grupo 1773" transform="translate(60.718 13.258)">
      <g id="Grupo_1772" data-name="Grupo 1772" transform="translate(0)">
        <path id="Caminho_1205" data-name="Caminho 1205" d="M198.983,194.471h-2.43v-2.43a1.041,1.041,0,1,0-2.082,0v2.43h-2.43a1.041,1.041,0,1,0,0,2.082h2.43v2.43a1.041,1.041,0,1,0,2.082,0v-2.43h2.43a1.041,1.041,0,1,0,0-2.082Z" transform="translate(-191 -191)" fill="#707070"/>
      </g>
    </g>
  </g>
</svg>
