<svg id="Grupo_1807" data-name="Grupo 1807" xmlns="http://www.w3.org/2000/svg" width="26.483" height="35.31" viewBox="0 0 26.483 35.31">
  <path id="Caminho_1152" data-name="Caminho 1152" d="M87.172,214.069H67.31a3.314,3.314,0,0,1-3.31-3.31V195.31A3.314,3.314,0,0,1,67.31,192H87.172a3.314,3.314,0,0,1,3.31,3.31v15.448A3.314,3.314,0,0,1,87.172,214.069ZM67.31,194.207a1.1,1.1,0,0,0-1.1,1.1v15.448a1.1,1.1,0,0,0,1.1,1.1H87.172a1.1,1.1,0,0,0,1.1-1.1V195.31a1.1,1.1,0,0,0-1.1-1.1Z" transform="translate(-64 -178.759)" fill="#707070"/>
  <path id="Caminho_1153" data-name="Caminho 1153" d="M144.552,15.448a1.1,1.1,0,0,1-1.1-1.1V8.828a6.621,6.621,0,1,0-13.241,0v5.517a1.1,1.1,0,0,1-2.207,0V8.828a8.828,8.828,0,0,1,17.655,0v5.517A1.1,1.1,0,0,1,144.552,15.448Z" transform="translate(-123.586)" fill="#707070"/>
  <path id="Caminho_1154" data-name="Caminho 1154" d="M216.276,283.218a2.943,2.943,0,1,1,2.943-2.943A2.945,2.945,0,0,1,216.276,283.218Zm0-3.678a.736.736,0,1,0,.736.736A.737.737,0,0,0,216.276,279.54Z" transform="translate(-203.034 -258.207)" fill="#707070"/>
  <path id="Caminho_1155" data-name="Caminho 1155" d="M241.1,342.253a1.1,1.1,0,0,1-1.1-1.1V337.1a1.1,1.1,0,0,1,2.207,0v4.046A1.1,1.1,0,0,1,241.1,342.253Z" transform="translate(-227.862 -312.828)" fill="#707070"/>
</svg>
