<svg xmlns="http://www.w3.org/2000/svg" width="40.394" height="47.485" viewBox="0 0 40.394 47.485">
  <g id="Grupo_1559" data-name="Grupo 1559" transform="translate(-54.384 -19)">
    <path id="Caminho_661" data-name="Caminho 661" d="M94.076,19H61.086a.7.7,0,0,0-.7.7v6.388h-5.3a.7.7,0,0,0-.7.7V65.783a.7.7,0,0,0,.7.7H88.079a.7.7,0,0,0,.7-.7V59.4h5.3a.7.7,0,0,0,.7-.7V19.7a.7.7,0,0,0-.7-.7ZM55.788,65.082V27.492h31.59V65.081Zm37.587-7.089H88.78v-31.2a.7.7,0,0,0-.7-.7H61.787V20.4H93.375Z" transform="translate(0 0)" fill="#666"/>
    <path id="Caminho_662" data-name="Caminho 662" d="M258.222,140.4H249.7a.7.7,0,1,0,0,1.4h8.521a.7.7,0,1,0,0-1.4Z" transform="translate(-175.12 -109.238)" fill="#666"/>
    <path id="Caminho_663" data-name="Caminho 663" d="M127.8,212.4H104.761a.7.7,0,1,0,0,1.4H127.8a.7.7,0,0,0,0-1.4Z" transform="translate(-44.7 -174.025)" fill="#666"/>
    <path id="Caminho_664" data-name="Caminho 664" d="M127.8,248.4H104.761a.7.7,0,1,0,0,1.4H127.8a.7.7,0,0,0,0-1.4Z" transform="translate(-44.7 -206.419)" fill="#666"/>
    <path id="Caminho_665" data-name="Caminho 665" d="M127.8,284.4H104.761a.7.7,0,1,0,0,1.4H127.8a.7.7,0,1,0,0-1.4Z" transform="translate(-44.7 -238.813)" fill="#666"/>
    <path id="Caminho_666" data-name="Caminho 666" d="M127.8,320.4H104.761a.7.7,0,1,0,0,1.4H127.8a.7.7,0,0,0,0-1.4Z" transform="translate(-44.7 -271.206)" fill="#666"/>
    <path id="Caminho_667" data-name="Caminho 667" d="M127.8,356.4H104.761a.7.7,0,0,0,0,1.4H127.8a.7.7,0,0,0,0-1.4Z" transform="translate(-44.7 -303.6)" fill="#666"/>
  </g>
</svg>
