<svg xmlns="http://www.w3.org/2000/svg" width="39.092" height="46.856" viewBox="0 0 39.092 46.856">
  <g id="Grupo_727" data-name="Grupo 727" transform="translate(0 0)">
    <path id="Caminho_652" data-name="Caminho 652" d="M140.317,22.571a10.921,10.921,0,0,0,7.98-3.306,10.921,10.921,0,0,0,3.306-7.979A10.921,10.921,0,0,0,148.3,3.306a11.283,11.283,0,0,0-15.959,0,10.92,10.92,0,0,0-3.306,7.979,10.921,10.921,0,0,0,3.306,7.98A10.924,10.924,0,0,0,140.317,22.571ZM134.279,5.248a8.537,8.537,0,0,1,12.075,0,8.159,8.159,0,0,1,2.5,6.038,8.159,8.159,0,0,1-2.5,6.038,8.536,8.536,0,0,1-12.075,0,8.157,8.157,0,0,1-2.5-6.038A8.158,8.158,0,0,1,134.279,5.248Z" transform="translate(-121.066 0)" fill="#666"/>
    <path id="Caminho_653" data-name="Caminho 653" d="M81,260.713a27.884,27.884,0,0,0-.38-2.961,23.31,23.31,0,0,0-.728-2.977A14.7,14.7,0,0,0,78.666,252a10.46,10.46,0,0,0-1.845-2.4,8.137,8.137,0,0,0-2.651-1.666,9.16,9.16,0,0,0-3.384-.612,3.435,3.435,0,0,0-1.834.778c-.55.359-1.193.773-1.911,1.232a10.943,10.943,0,0,1-2.472,1.089,9.6,9.6,0,0,1-6.048,0,10.914,10.914,0,0,1-2.471-1.089c-.711-.454-1.354-.869-1.913-1.233a3.432,3.432,0,0,0-1.834-.778,9.149,9.149,0,0,0-3.384.613,8.131,8.131,0,0,0-2.651,1.666,10.47,10.47,0,0,0-1.845,2.4,14.734,14.734,0,0,0-1.224,2.777,23.384,23.384,0,0,0-.728,2.976,27.686,27.686,0,0,0-.38,2.962c-.062.895-.094,1.826-.094,2.767a7.781,7.781,0,0,0,2.311,5.886,8.318,8.318,0,0,0,5.955,2.172H72.827a8.318,8.318,0,0,0,5.954-2.172,7.778,7.778,0,0,0,2.311-5.887C81.092,262.536,81.06,261.605,81,260.713Zm-4.11,6.665a5.6,5.6,0,0,1-4.061,1.415H50.265a5.6,5.6,0,0,1-4.061-1.415,5.08,5.08,0,0,1-1.458-3.9c0-.878.029-1.745.087-2.577a24.979,24.979,0,0,1,.343-2.667,20.628,20.628,0,0,1,.64-2.624,11.992,11.992,0,0,1,1-2.257,7.756,7.756,0,0,1,1.356-1.777,5.4,5.4,0,0,1,1.764-1.1,6.316,6.316,0,0,1,2.162-.417c.1.051.267.149.545.33.564.368,1.215.788,1.934,1.247a13.6,13.6,0,0,0,3.1,1.387,12.343,12.343,0,0,0,7.737,0,13.615,13.615,0,0,0,3.105-1.388c.736-.47,1.368-.878,1.933-1.246.277-.181.449-.279.545-.33a6.32,6.32,0,0,1,2.163.417,5.4,5.4,0,0,1,1.763,1.1,7.739,7.739,0,0,1,1.356,1.777,11.947,11.947,0,0,1,1,2.257,20.578,20.578,0,0,1,.641,2.624,25.18,25.18,0,0,1,.343,2.667h0c.058.829.088,1.7.088,2.576A5.081,5.081,0,0,1,76.888,267.378Z" transform="translate(-42 -224.683)" fill="#666"/>
  </g>
</svg>
