<svg id="stethoscope" xmlns="http://www.w3.org/2000/svg" width="92.076" height="87.661" viewBox="0 0 92.076 87.661">
  <g id="Grupo_662" data-name="Grupo 662" transform="translate(0 0)">
    <g id="Grupo_661" data-name="Grupo 661">
      <path id="Caminho_647" data-name="Caminho 647" d="M91.964,60.628a10.742,10.742,0,0,0-9.1-9.1v-2.79c0-7.7-5.851-13.965-13.044-13.965-6.985,0-12.834,6.077-13.044,13.547h.089l-.089.015V78.581c0,9.668-7.228,17.519-16.113,17.519S24.553,88.238,24.553,78.581v-2.62c2.225,0,4.6-1.613,4.6-6.138V65.964c9.849-2.518,16.88-10.975,16.88-20.563V42.2H42.968L42.9,22.228a7.681,7.681,0,0,0-6.313-7.512,4.579,4.579,0,1,0-.1,3.129,4.6,4.6,0,0,1,3.344,4.392L39.9,42.2H36.83v3.244A12.2,12.2,0,0,1,28,56.894a13.954,13.954,0,0,1-8.44,0,12.2,12.2,0,0,1-8.815-11.449V42.2h-4.6V22.251a4.6,4.6,0,0,1,3.407-4.426,4.625,4.625,0,1,0-.1-3.117,7.673,7.673,0,0,0-6.381,7.542V42.2H0v3.192c0,9.6,7.036,18.059,16.88,20.571v3.859c0,4.525,2.379,6.138,4.6,6.138v2.62c0,11.356,8.6,20.588,19.182,20.588s19.182-9.243,19.182-20.588V48.413C60,42.589,64.48,37.85,69.823,37.85c5.5,0,9.975,4.886,9.975,10.9v2.785a10.742,10.742,0,1,0,12.166,9.1ZM32.226,17.648a1.535,1.535,0,1,1,1.535-1.535A1.535,1.535,0,0,1,32.226,17.648ZM13.811,14.579a1.535,1.535,0,1,1-1.535,1.535A1.535,1.535,0,0,1,13.811,14.579ZM3.069,45.393V45.27h4.6v.175A15.248,15.248,0,0,0,18.627,59.813a17.076,17.076,0,0,0,10.309,0A15.25,15.25,0,0,0,39.9,45.445V45.27h3.069v.123c0,8.537-6.58,16.049-15.653,17.866a21.89,21.89,0,0,1-6.474.318,20.042,20.042,0,0,1-2.119-.321C9.649,61.441,3.069,53.93,3.069,45.393Zm18.415,27.5c-1.381,0-1.535-2.148-1.535-3.069V66.567c.123.015.249.021.373.034.153.017.307.029.46.043.726.064,1.458.107,2.2.109h.077c.737,0,1.467-.045,2.188-.109.153-.014.316-.026.474-.043.121-.014.247-.018.368-.034v3.256c0,.921-.153,3.069-1.535,3.069Zm59.848-3.069a7.673,7.673,0,1,1,7.673-7.673A7.673,7.673,0,0,1,81.332,69.823Z" transform="translate(0 -11.508)" fill="#fff"/>
    </g>
  </g>
  <g id="Grupo_664" data-name="Grupo 664" transform="translate(76.729 46.039)">
    <g id="Grupo_663" data-name="Grupo 663">
      <path id="Caminho_648" data-name="Caminho 648" d="M404.6,251.515a4.6,4.6,0,1,0,4.6,4.6A4.6,4.6,0,0,0,404.6,251.515Zm0,6.138a1.535,1.535,0,1,1,1.535-1.535A1.535,1.535,0,0,1,404.6,257.653Z" transform="translate(-400 -251.515)" fill="#fff"/>
    </g>
  </g>
</svg>
