<svg xmlns="http://www.w3.org/2000/svg" width="79.207" height="79.206" viewBox="0 0 79.207 79.206">
  <g id="Grupo_1915" data-name="Grupo 1915" transform="translate(571 -7.659)">
    <g id="Grupo_1914" data-name="Grupo 1914" transform="translate(-571 7.658)">
      <path id="Caminho_1223" data-name="Caminho 1223" d="M-492.473,8.338a2.32,2.32,0,0,0-3.282,0l-10.855,10.855a6.973,6.973,0,0,0-7.922,1.359l-5.2,5.2a6.973,6.973,0,0,0-7.922,1.359l-22.6,22.6a22.759,22.759,0,0,0-8.573-1.663h-.007a6.969,6.969,0,0,0-6.961,6.961,6.969,6.969,0,0,0,6.961,6.961,8.841,8.841,0,0,1,2.515.369l-9.078,9.078-1.641-1.641a2.32,2.32,0,0,0-3.282,0,2.32,2.32,0,0,0,0,3.282l13.127,13.127a2.32,2.32,0,0,0,3.282,0,2.32,2.32,0,0,0,0-3.282l-1.641-1.641,9.078-9.078A8.841,8.841,0,0,1-546.1,74.7a6.916,6.916,0,0,0,2.038,4.923,6.916,6.916,0,0,0,4.922,2.038,6.969,6.969,0,0,0,6.961-6.96,22.762,22.762,0,0,0-1.663-8.581l22.6-22.6a6.963,6.963,0,0,0,1.362-7.925l5.2-5.2a6.963,6.963,0,0,0,1.362-7.925l10.852-10.852A2.319,2.319,0,0,0-492.473,8.338Zm-66.361,69.643-3.282-3.282,9.845-9.845,3.282,3.282Zm19.69-.962a2.317,2.317,0,0,1-2.32-2.32,13.65,13.65,0,0,0-3.961-9.563l-3.846-3.846a13.649,13.649,0,0,0-9.563-3.961,2.323,2.323,0,0,1-2.32-2.32,2.323,2.323,0,0,1,2.321-2.32h.006a18.039,18.039,0,0,1,12.839,5.32l3.846,3.846a18.039,18.039,0,0,1,5.32,12.845A2.323,2.323,0,0,1-539.143,77.019Zm9.845-22.01-1.641-1.641a2.32,2.32,0,0,0-3.282,0,2.32,2.32,0,0,0,0,3.282l1.641,1.641-3.56,3.56a23.1,23.1,0,0,0-2.722-3.278l-3.846-3.846a23.062,23.062,0,0,0-3.277-2.722l10.123-10.123,9.845,9.845Zm14.767-14.767-1.641,1.641-1.641-1.641a2.32,2.32,0,0,0-3.282,0,2.32,2.32,0,0,0,0,3.282l1.641,1.641-3.282,3.282L-532.58,38.6l8.2-8.2a2.323,2.323,0,0,1,3.282,0l6.563,6.563A2.319,2.319,0,0,1-514.531,40.242Zm6.563-13.127-4.923,4.923-3.282-3.282,4.922-4.923a2.323,2.323,0,0,1,3.282,0A2.319,2.319,0,0,1-507.968,27.115Z" transform="translate(571 -7.658)" fill="#fff"/>
    </g>
  </g>
</svg>
