<svg xmlns="http://www.w3.org/2000/svg" width="42.219" height="51.962" viewBox="0 0 42.219 51.962">
  <g id="Grupo_1925" data-name="Grupo 1925" transform="translate(0 0)" opacity="0.55">
    <path id="Caminho_1207" data-name="Caminho 1207" d="M86.16,6.5H77.229V4.871A4.877,4.877,0,0,0,72.357,0h-6.5a4.877,4.877,0,0,0-4.871,4.871V6.5H52.06A4.064,4.064,0,0,0,48,10.555v5.683a1.624,1.624,0,0,0,1.624,1.624h.887l1.4,29.46a4.866,4.866,0,0,0,4.866,4.64H81.439a4.865,4.865,0,0,0,4.866-4.64l1.4-29.46H88.6a1.624,1.624,0,0,0,1.624-1.624V10.555A4.064,4.064,0,0,0,86.16,6.5ZM64.238,4.871a1.626,1.626,0,0,1,1.624-1.624h6.5a1.626,1.626,0,0,1,1.624,1.624V6.5H64.238ZM51.248,10.555a.813.813,0,0,1,.812-.812h34.1a.813.813,0,0,1,.812.812v4.06H51.248ZM83.061,47.168a1.622,1.622,0,0,1-1.622,1.547H56.78a1.622,1.622,0,0,1-1.622-1.547l-1.4-29.306H84.457Z" transform="translate(-48 0)"/>
    <path id="Caminho_1208" data-name="Caminho 1208" d="M241.624,232.357a1.624,1.624,0,0,0,1.624-1.624v-21.11a1.624,1.624,0,0,0-3.248,0v21.11A1.624,1.624,0,0,0,241.624,232.357Z" transform="translate(-220.514 -186.891)"/>
    <path id="Caminho_1209" data-name="Caminho 1209" d="M321.624,232.357a1.624,1.624,0,0,0,1.624-1.624v-21.11a1.624,1.624,0,0,0-3.248,0v21.11A1.624,1.624,0,0,0,321.624,232.357Z" transform="translate(-292.395 -186.891)"/>
    <path id="Caminho_1210" data-name="Caminho 1210" d="M161.624,232.357a1.624,1.624,0,0,0,1.624-1.624v-21.11a1.624,1.624,0,0,0-3.248,0v21.11A1.624,1.624,0,0,0,161.624,232.357Z" transform="translate(-148.633 -186.891)"/>
  </g>
</svg>
