<svg xmlns="http://www.w3.org/2000/svg" width="27.142" height="27.141" viewBox="0 0 27.142 27.141">
  <path id="Caminho_22" data-name="Caminho 22" d="M93.264,9.557,85.128,8.318,81.491.6a1.053,1.053,0,0,0-.466-.486A1.008,1.008,0,0,0,79.65.6L76.013,8.318,67.878,9.557a1,1,0,0,0-.586.313,1.111,1.111,0,0,0,.018,1.521L73.2,17.4l-1.391,8.486a1.1,1.1,0,0,0,.061.587,1.067,1.067,0,0,0,.346.464.987.987,0,0,0,1.079.081l7.278-4.007,7.278,4.007a.97.97,0,0,0,.649.107,1.066,1.066,0,0,0,.837-1.239L87.944,17.4l5.887-6.009a1.1,1.1,0,0,0,.3-.616A1.065,1.065,0,0,0,93.264,9.557Z" transform="translate(-67 0)" fill="#ddd"/>
</svg>
